<svg xmlns="http://www.w3.org/2000/svg" xmlns:xlink="http://www.w3.org/1999/xlink" width="500" zoomAndPan="magnify" viewBox="0 0 375 374.999991" height="500" preserveAspectRatio="xMidYMid meet" version="1.0"><path fill="#8cc84b" d="M 172.789062 15.773438 C 181.585938 10.800781 192.800781 10.777344 201.378906 15.773438 L 332.71875 89.710938 C 340.933594 94.324219 346.433594 103.46875 346.355469 112.925781 L 346.355469 261.171875 C 346.410156 271.023438 340.375 280.367188 331.707031 284.894531 L 201.070312 358.488281 C 199.960938 359.101562 198.8125 359.640625 197.628906 360.101562 C 196.445312 360.5625 195.234375 360.941406 194 361.242188 C 192.765625 361.542969 191.515625 361.757812 190.253906 361.890625 C 188.988281 362.027344 187.722656 362.074219 186.453125 362.039062 C 185.183594 362.003906 183.921875 361.886719 182.667969 361.683594 C 181.410156 361.480469 180.175781 361.195312 178.960938 360.828125 C 177.746094 360.460938 176.558594 360.011719 175.402344 359.488281 C 174.246094 358.960938 173.128906 358.363281 172.050781 357.6875 L 132.851562 335.066406 C 130.179688 333.472656 127.175781 332.210938 125.285156 329.628906 C 126.957031 327.390625 129.925781 327.105469 132.34375 326.117188 C 137.796875 324.382812 142.789062 321.722656 147.804688 318.914062 C 149.070312 318.035156 150.621094 318.363281 151.828125 319.152344 L 185.257812 338.460938 C 187.644531 339.832031 190.0625 338.019531 192.109375 336.867188 L 320.382812 264.578125 C 321.964844 263.808594 322.84375 262.140625 322.714844 260.402344 L 322.714844 113.585938 C 322.890625 111.609375 321.757812 109.804688 319.964844 109.003906 L 189.65625 35.726562 C 189.28125 35.46875 188.875 35.269531 188.441406 35.132812 C 188.003906 34.996094 187.558594 34.929688 187.101562 34.925781 C 186.644531 34.925781 186.199219 34.992188 185.761719 35.128906 C 185.328125 35.261719 184.921875 35.457031 184.542969 35.714844 L 54.425781 109.148438 C 52.664062 109.949219 51.457031 111.726562 51.675781 113.703125 L 51.675781 260.523438 C 51.519531 262.261719 52.445312 263.894531 54.039062 264.644531 L 88.808594 284.246094 C 95.339844 287.757812 103.359375 289.734375 110.550781 287.15625 C 111.332031 286.859375 112.085938 286.507812 112.816406 286.097656 C 113.542969 285.691406 114.238281 285.230469 114.898438 284.714844 C 115.554688 284.199219 116.171875 283.640625 116.742188 283.03125 C 117.316406 282.421875 117.839844 281.777344 118.316406 281.089844 C 118.789062 280.402344 119.207031 279.679688 119.574219 278.929688 C 119.9375 278.179688 120.242188 277.40625 120.492188 276.609375 C 120.738281 275.808594 120.921875 275 121.046875 274.171875 C 121.171875 273.347656 121.230469 272.515625 121.226562 271.683594 L 121.261719 125.742188 C 121.105469 123.578125 123.152344 121.789062 125.25 122.007812 L 141.964844 122.007812 C 144.164062 121.953125 145.890625 124.28125 145.59375 126.453125 L 145.5625 273.316406 C 145.574219 286.363281 140.207031 300.550781 128.121094 306.953125 C 113.234375 314.640625 94.824219 313.027344 80.113281 305.636719 L 42.722656 284.992188 C 33.925781 280.597656 28.023438 271.109375 28.078125 261.273438 L 28.078125 113.023438 C 28.085938 111.824219 28.175781 110.632812 28.34375 109.445312 C 28.511719 108.257812 28.757812 107.085938 29.082031 105.929688 C 29.40625 104.777344 29.804688 103.648438 30.28125 102.546875 C 30.757812 101.445312 31.300781 100.378906 31.917969 99.351562 C 32.535156 98.320312 33.21875 97.339844 33.964844 96.402344 C 34.714844 95.460938 35.523438 94.578125 36.386719 93.746094 C 37.253906 92.917969 38.171875 92.144531 39.140625 91.4375 C 40.109375 90.730469 41.121094 90.085938 42.175781 89.511719 Z M 210.660156 118.535156 C 229.652344 117.4375 249.984375 117.8125 267.070312 127.15625 C 280.300781 134.316406 287.636719 149.339844 287.878906 164.03125 C 287.503906 166.007812 285.4375 167.105469 283.542969 166.964844 C 278.046875 166.953125 272.527344 167.042969 267.007812 166.929688 C 264.664062 167.019531 263.3125 164.867188 263.015625 162.800781 C 261.429688 155.773438 257.59375 148.824219 250.972656 145.429688 C 240.8125 140.34375 229.023438 140.597656 217.941406 140.707031 C 209.847656 141.148438 201.148438 141.839844 194.296875 146.582031 C 189.019531 150.183594 187.4375 157.5625 189.316406 163.296875 C 191.074219 167.503906 195.949219 168.851562 199.917969 170.105469 C 222.8125 176.078125 247.058594 175.59375 269.523438 183.359375 C 278.816406 186.566406 287.910156 192.804688 291.097656 202.523438 C 295.253906 215.546875 293.441406 231.117188 284.171875 241.570312 C 276.648438 250.179688 265.699219 254.75 254.757812 257.40625 C 240.207031 260.644531 225.121094 260.722656 210.351562 259.273438 C 196.464844 257.691406 182.015625 254.046875 171.292969 244.601562 C 162.121094 236.652344 157.65625 224.265625 158.097656 212.316406 C 158.207031 210.296875 160.21875 208.890625 162.167969 209.054688 L 178.660156 209.054688 C 180.882812 208.902344 182.511719 210.8125 182.621094 212.898438 C 183.640625 219.488281 186.160156 226.625 192.011719 230.46875 C 203.292969 237.738281 217.445312 237.234375 230.355469 237.441406 C 241.054688 236.96875 253.0625 236.828125 261.804688 229.753906 C 266.421875 225.726562 267.777344 218.992188 266.53125 213.195312 C 265.179688 208.296875 259.933594 206.023438 255.535156 204.410156 C 232.9375 197.273438 208.417969 199.863281 186.039062 191.78125 C 176.957031 188.574219 168.171875 182.515625 164.683594 173.191406 C 159.8125 160.011719 162.046875 143.683594 172.304688 133.582031 C 182.203125 123.535156 196.71875 119.65625 210.460938 118.273438 Z M 210.660156 118.535156 " fill-opacity="1" fill-rule="nonzero"/></svg>